<svg width="122" height="117" viewBox="0 0 122 117" fill="none" xmlns="http://www.w3.org/2000/svg">
<path d="M99.4577 30.1405C96.7887 25.8574 92.6283 23.2175 88.0451 22.8952C85.6521 22.7296 83.2182 23.2135 81.0019 24.2942C80.1352 24.7168 79.3234 25.2523 78.5447 25.8353C75.3085 16.9079 67.4457 11.4172 59.3413 12.9907C58.1171 13.2276 56.9108 13.6321 55.7828 14.1821C50.7268 16.6475 47.444 21.9052 46.5868 28.089C41.1828 24.9583 35.0206 24.3062 29.9646 26.7716C28.8387 27.3206 27.7851 28.0181 26.8385 28.8397C20.609 34.2581 20.0913 43.8304 25.1431 51.8749C24.1963 52.1333 23.2845 52.4383 22.4078 52.8658C20.1974 53.9436 18.3243 55.5673 16.9723 57.5517C14.4028 61.3691 13.9228 66.2717 15.6549 71.0044C17.0987 74.9248 19.958 78.488 23.7433 81.0267C28.57 84.2895 34.1581 85.4371 39.0879 84.3755C39.5417 88.1443 40.5382 91.8958 42.2751 95.4577C44.3873 99.7895 46.6606 102.583 49.4187 104.251C52.9452 106.374 57.0272 106.498 60.9137 104.602C63.785 103.202 66.1866 100.919 68.7472 98.4851C71.4669 95.8999 74.2909 93.2223 77.5896 91.6137C80.8904 90.0042 84.744 89.4331 88.4488 88.8782C91.9346 88.3615 95.2311 87.8685 98.0965 86.4713C101.546 84.7894 108.852 79.4438 102.367 66.1458C100.633 62.5898 98.2942 59.4905 95.5775 56.8276C99.4477 53.6031 101.982 48.4925 102.387 42.6833C102.696 38.1384 101.663 33.6845 99.4577 30.1405ZM99.8092 42.5099C99.4649 47.5202 97.3189 52.0203 93.9193 54.8586L91.7389 56.6762L93.7721 58.6657C96.4098 61.252 98.5195 64.152 100.048 67.2866C105.057 77.5588 101.126 82.1356 96.9605 84.1668C94.4493 85.3913 91.356 85.8489 88.0645 86.337C84.1595 86.9234 80.1146 87.5192 76.4577 89.3024C72.8007 91.0856 69.8464 93.9027 66.9519 96.6417C64.5553 98.915 62.2978 101.067 59.7886 102.29C56.66 103.816 53.5435 103.738 50.7412 102.055C48.4236 100.648 46.465 98.1934 44.5815 94.3306C43.055 91.2001 42.0693 87.747 41.648 84.0751L41.3353 81.254L38.5685 81.8487C34.2456 82.7785 29.3716 81.6991 25.2081 78.877C21.8699 76.6373 19.3557 73.5156 18.1008 70.0982C16.6484 66.1551 17.0246 62.0943 19.1362 58.9704C20.2284 57.3576 21.757 56.0318 23.5577 55.1537C24.189 54.8459 24.9183 54.5834 25.8325 54.3384L29.1843 53.4315L27.3418 50.4868C22.8696 43.3697 23.3718 35.2574 28.5564 30.7502C29.3311 30.0736 30.1914 29.5071 31.1156 29.0565C35.2375 27.0466 40.5331 27.5138 45.3223 30.2879L48.6342 32.2074L49.1613 28.4159C49.9189 22.9371 52.8217 18.4722 56.9377 16.4651C57.8638 16.0135 58.8379 15.6855 59.8541 15.4889C66.5872 14.1823 73.29 18.7862 76.1544 26.6849L77.334 29.9528L80.1126 27.8704C80.8785 27.2961 81.5226 26.8889 82.1499 26.583C83.9605 25.7001 85.9376 25.3092 87.8898 25.4448C91.6494 25.7058 95.0707 27.91 97.2949 31.4817C99.1999 34.5796 100.094 38.4984 99.8092 42.5099Z" fill="black"/>
<path d="M59.1545 53.8223C50.8651 57.8595 41.9342 77.1727 49.2021 92.0775C56.47 106.982 61.4379 90.9045 74.2016 84.6807C86.9712 78.454 102.694 84.4425 95.4263 69.5377C88.1585 54.6329 67.4439 49.7852 59.1545 53.8223Z" fill="black"/>
<path d="M54.3587 34.4887C53.0494 27.7349 55.9355 21.4925 60.8129 20.5495C65.6982 19.5978 70.7084 24.3069 72.0226 31.0608C73.3319 37.8146 70.4429 44.0559 65.5616 45.0008C60.6861 45.9527 55.668 41.2425 54.3587 34.4887ZM48.2623 53.4412C52.0186 50.1791 51.3946 43.3336 46.8795 38.143C42.3685 32.9505 35.6758 31.3862 31.9234 34.6464C28.171 37.9066 28.7861 44.7588 33.3002 49.9475C37.8113 55.14 44.5138 56.7043 48.2623 53.4412ZM36.9927 61.4128C31.9439 58.006 25.859 58.1955 23.3965 61.8456C20.9361 65.4948 23.0286 71.2127 28.0773 74.6195C33.134 78.0225 39.2209 77.832 41.6774 74.1848C44.1418 70.5386 42.0375 64.8167 36.9927 61.4128ZM87.5058 30.5749C83.1155 30.2663 79.2102 34.9458 78.7863 41.0236C78.3596 47.1004 81.5662 52.2751 85.9605 52.5817C90.3508 52.8903 94.2502 48.2137 94.678 42.1339C95.1058 36.0542 91.8834 30.8823 87.5058 30.5749Z" fill="black"/>
</svg>
